<svg width="68" height="66" viewBox="0 0 68 66" fill="none" xmlns="http://www.w3.org/2000/svg">
<path d="M41.3114 35.5938C40.276 36.3125 39.3262 37.1444 38.4812 38.0756C35.1504 36.3931 31.0165 35.3014 26.1776 35.3014C11.8886 35.3014 3.76 44.7926 3.76 50.5667C3.76 51.534 4.24473 51.8782 5.61813 51.8782H33.4766C33.5266 53.103 33.7191 54.291 34.0404 55.429H6.55599C2.10749 55.429 0 54.0326 0 50.9459C0 43.0265 9.96823 31.7414 26.1776 31.7414C32.1262 31.7414 37.2363 33.2653 41.3114 35.5938ZM38.9683 13.6256C38.9683 21.3862 33.2928 27.5873 26.2056 27.5873C19.1185 27.5873 13.443 21.407 13.443 13.6675C13.443 6.14142 19.1866 0 26.2056 0C33.248 0 38.9683 6.04818 38.9683 13.6256ZM17.203 13.6675C17.203 19.5046 21.2631 24.0369 26.2056 24.0369C31.1692 24.0369 35.2085 19.472 35.2085 13.6256C35.2085 7.96219 31.1546 3.55045 26.2056 3.55045C21.2588 3.55045 17.203 8.03447 17.203 13.6675Z" fill="white"/>
<path d="M67.1571 50.7643C67.1571 59.0171 60.2594 65.8632 52.0579 65.8632C43.7728 65.8632 36.959 59.0587 36.959 50.7643C36.959 42.4788 43.7728 35.665 52.0579 35.665C60.3318 35.665 67.1571 42.4695 67.1571 50.7643ZM44.0831 49.1259C43.1918 49.1259 42.4448 49.8938 42.4448 50.7643C42.4448 51.6136 43.1918 52.3815 44.0831 52.3815H60.014C60.8845 52.3815 61.6315 51.6136 61.6315 50.7643C61.6315 49.8938 60.8845 49.1259 60.014 49.1259H44.0831Z" fill="white"/>
</svg>
