<svg width="39" height="38" viewBox="0 0 39 38" fill="none" xmlns="http://www.w3.org/2000/svg">
<path d="M19.1439 37.9812C29.7187 37.9812 38.2938 29.4748 38.2938 18.9906C38.2938 8.50055 29.7187 0 19.1439 0C8.57512 0 0 8.50055 0 18.9906C0 29.4748 8.57512 37.9812 19.1439 37.9812ZM19.1439 35.5254C9.93015 35.5254 2.47566 28.1305 2.47566 18.9906C2.47566 9.84472 9.93015 2.44997 19.1439 2.44997C28.3636 2.44997 35.8181 9.84472 35.8181 18.9906C35.8181 28.1305 28.3636 35.5254 19.1439 35.5254Z" fill="#3B83A2"/>
<path d="M8.58865 14.8612H29.7433C30.3879 14.8612 30.8686 14.4425 30.8686 13.8103C30.8686 13.1853 30.3879 12.7666 29.7433 12.7666H8.58865C7.92498 12.7666 7.45752 13.1853 7.45752 13.8103C7.45752 14.4425 7.92498 14.8612 8.58865 14.8612ZM11.39 21.111H26.942C27.5866 21.111 28.054 20.6924 28.054 20.0543C28.054 19.435 27.5866 19.0164 26.942 19.0164H11.39C10.7263 19.0164 10.2588 19.435 10.2588 20.0543C10.2588 20.6924 10.7263 21.111 11.39 21.111ZM14.3058 27.3913H24.0129C24.6575 27.3913 25.1381 26.9655 25.1381 26.3406C25.1381 25.7155 24.6575 25.3027 24.0129 25.3027H14.3058C13.6553 25.3027 13.1878 25.7155 13.1878 26.3406C13.1878 26.9655 13.6553 27.3913 14.3058 27.3913Z" fill="#3B83A2"/>
</svg>
