<svg width="224" height="73" viewBox="0 0 224 73" fill="none" xmlns="http://www.w3.org/2000/svg">
<path d="M179.792 39.6153C178.733 39.8992 177.616 39.4288 177.079 38.4726L162.966 13.3518C162.429 12.3957 161.312 11.9253 160.253 12.2091L155.862 13.3855C154.582 13.7286 153.266 12.9688 152.923 11.6885L152.882 11.5378C152.539 10.2575 153.299 8.94144 154.579 8.59838L162.688 6.4257C163.747 6.14184 164.864 6.61223 165.402 7.56841L167.332 11.0049C167.87 11.9616 168.988 12.4319 170.047 12.1471L214.942 0.0832917C216.393 -0.306812 217.842 0.718461 217.957 2.21728L219.85 26.8545C219.938 28.0062 219.194 29.0575 218.078 29.3565L179.792 39.6153ZM173.733 16.2887C172.22 16.695 171.496 18.417 172.263 19.782L179.514 32.6891C180.051 33.6453 181.168 34.1157 182.228 33.8319L212.822 25.6342C213.937 25.3353 214.682 24.2839 214.593 23.1322L213.474 8.55401C213.359 7.05519 211.91 6.02992 210.458 6.42002L173.733 16.2887Z" fill="#E3F7FF"/>
<path d="M189.219 55.7876C184.998 56.9187 180.644 54.4046 179.513 50.1834C178.382 45.9622 180.896 41.6079 185.117 40.4768L213.959 32.7485C218.181 31.6174 222.535 34.1313 223.666 38.3525C224.797 42.5737 222.283 46.9282 218.062 48.0593C213.841 49.1904 209.486 46.6763 208.355 42.4551C208.084 41.4413 208.023 40.42 208.145 39.4373L193.497 43.3622C194.094 44.1522 194.552 45.0671 194.824 46.0809C195.955 50.3021 193.441 54.6566 189.219 55.7876ZM213.142 41.1724C213.566 42.754 215.198 43.6959 216.779 43.2722C218.361 42.8484 219.303 41.2169 218.879 39.6352C218.455 38.0537 216.824 37.1118 215.242 37.5356C213.661 37.9594 212.719 39.5908 213.142 41.1724ZM184.3 48.9007C184.724 50.4824 186.355 51.4243 187.937 51.0005C189.518 50.5767 190.46 48.9453 190.036 47.3636C189.612 45.7821 187.981 44.8402 186.399 45.264C184.818 45.6878 183.876 47.3192 184.3 48.9007Z" fill="#E3F7FF"/>
<path d="M12.9094 54.1719C8.98668 54.1719 5.84848 53.0604 3.49482 50.8372C1.16494 48.614 0 45.6186 0 41.8509C0 38.364 1.24815 35.4504 3.74445 33.1103C6.26453 30.7701 9.35518 29.6 13.0164 29.6C15.7267 29.6 18.1754 30.1499 20.3627 31.2498C20.6717 31.437 20.755 31.6827 20.6123 31.987L18.9719 35.3568C18.8292 35.6611 18.5915 35.7313 18.2587 35.5675C16.3567 34.6314 14.5736 34.1633 12.9094 34.1633C10.8411 34.1633 9.06989 34.9005 7.59589 36.3748C6.12188 37.8491 5.38488 39.6745 5.38488 41.8509C5.38488 44.1208 6.09811 45.9813 7.52456 47.4322C8.9748 48.8597 10.7816 49.5735 12.9451 49.5735C14.847 49.5735 16.6896 49.1054 18.4726 48.1694C18.7817 48.029 18.9957 48.0875 19.1145 48.3449L20.755 51.785C20.8976 52.0892 20.8144 52.3115 20.5053 52.4519C18.223 53.5986 15.691 54.1719 12.9094 54.1719Z" fill="#E3F7FF"/>
<path d="M29.0033 42.6231C28.2426 43.4422 27.8622 44.507 27.8622 45.8175C27.8622 47.128 28.2426 48.2045 29.0033 49.0469C29.7641 49.866 30.7745 50.2755 32.0346 50.2755C33.2946 50.2755 34.305 49.866 35.0658 49.0469C35.8266 48.2045 36.207 47.128 36.207 45.8175C36.207 44.507 35.8266 43.4422 35.0658 42.6231C34.305 41.7807 33.2946 41.3594 32.0346 41.3594C30.7745 41.3594 29.7641 41.7807 29.0033 42.6231ZM25.7225 51.9254C24.0583 50.4042 23.2262 48.3683 23.2262 45.8175C23.2262 43.2667 24.0583 41.2307 25.7225 39.7096C27.4105 38.1885 29.5145 37.4279 32.0346 37.4279C34.5784 37.4279 36.6824 38.1885 38.3466 39.7096C40.0346 41.2307 40.8786 43.2667 40.8786 45.8175C40.8786 48.3683 40.0346 50.4042 38.3466 51.9254C36.6824 53.4231 34.5784 54.1719 32.0346 54.1719C29.4907 54.1719 27.3867 53.4231 25.7225 51.9254Z" fill="#E3F7FF"/>
<path d="M49.1275 39.3586H49.2345C50.5183 38.0715 52.1469 37.4279 54.1201 37.4279C56.141 37.4279 57.7338 37.9544 58.8988 39.0075C60.1588 40.1308 60.7888 41.8158 60.7888 44.0623V53.2944C60.7888 53.6454 60.6105 53.8209 60.2539 53.8209H56.5808C56.4381 53.8209 56.3074 53.7741 56.1885 53.6805C56.0934 53.5635 56.0458 53.4348 56.0458 53.2944V45.2558C56.0458 43.8049 55.7724 42.7869 55.2256 42.2019C54.7502 41.6636 54.0369 41.3945 53.086 41.3945C51.8021 41.3945 50.8393 41.886 50.1974 42.8688C49.5792 43.8283 49.2702 44.9633 49.2702 46.2738V53.2944C49.2702 53.4348 49.2107 53.5635 49.0919 53.6805C48.9968 53.7741 48.8779 53.8209 48.7353 53.8209H45.0978C44.7412 53.8209 44.5629 53.6454 44.5629 53.2944V38.2704C44.5629 37.9193 44.7412 37.7438 45.0978 37.7438H48.5926C48.9492 37.7438 49.1275 37.9193 49.1275 38.2704V39.3586Z" fill="#E3F7FF"/>
<path d="M69.8307 41.3945V47.5024C69.8307 48.2747 69.9495 48.8831 70.1873 49.3278C70.4726 49.8894 71.0194 50.1702 71.8277 50.1702C72.6123 50.1702 73.3849 49.8777 74.1457 49.2927C74.5261 49.0118 74.7757 49.0352 74.8946 49.3629L76.1427 51.9605C76.2854 52.2179 76.2141 52.4519 75.9288 52.6625C74.4785 53.6688 72.6955 54.1719 70.5796 54.1719C68.6776 54.1719 67.2868 53.6571 66.4072 52.6274C65.5513 51.5743 65.1234 50.0766 65.1234 48.1343V41.3945H63.3403C63.1976 41.3945 63.0669 41.3477 62.948 41.2541C62.8529 41.1371 62.8054 40.9967 62.8054 40.8329V38.2704C62.8054 37.9193 62.9837 37.7438 63.3403 37.7438H65.1234V34.5846C65.1234 34.2335 65.3017 34.058 65.6583 34.058H69.2957C69.6524 34.058 69.8307 34.2335 69.8307 34.5846V37.7438H74.324C74.6806 37.7438 74.8589 37.9193 74.8589 38.2704V40.8329C74.8589 41.2073 74.6806 41.3945 74.324 41.3945H69.8307Z" fill="#E3F7FF"/>
<path d="M84.6101 41.0084C83.1599 41.0084 81.674 41.4296 80.1524 42.2721C79.772 42.4827 79.5105 42.4242 79.3679 42.0966L78.3337 39.8851C78.2148 39.6043 78.2861 39.3703 78.5477 39.183C80.4258 38.013 82.6368 37.4279 85.1807 37.4279C87.5106 37.4279 89.2342 38.0364 90.3516 39.2532C91.3026 40.3063 91.7781 41.7338 91.7781 43.5358V53.2944C91.7781 53.4348 91.7186 53.5635 91.5998 53.6805C91.5047 53.7741 91.3858 53.8209 91.2431 53.8209H88.1049C87.9385 53.8209 87.7959 53.7741 87.677 53.6805C87.5819 53.5635 87.5344 53.4348 87.5344 53.2944V53.0136H87.3917C86.1554 53.7858 84.7052 54.1719 83.041 54.1719C81.5194 54.1719 80.2594 53.739 79.2609 52.8731C78.1911 52.0073 77.6561 50.7904 77.6561 49.2224C77.6561 47.3971 78.6428 46.0398 80.616 45.1505C82.09 44.5187 84.2416 44.0974 87.0708 43.8868V43.5358C87.0708 42.7167 86.9043 42.1083 86.5715 41.7104C86.1911 41.2424 85.5373 41.0084 84.6101 41.0084ZM84.5745 50.7319C85.5016 50.7319 86.3337 50.5096 87.0708 50.0649V47.011C83.7899 47.128 82.1495 47.8183 82.1495 49.082C82.1495 49.6203 82.3753 50.0298 82.827 50.3106C83.2788 50.5915 83.8612 50.7319 84.5745 50.7319Z" fill="#E3F7FF"/>
<path d="M106.369 48.9767L104.906 53.2242C104.764 53.622 104.467 53.8209 104.015 53.8209H100.021C99.688 53.8209 99.5216 53.6805 99.5216 53.3997C99.5216 53.3529 99.5454 53.2359 99.5929 53.0487L107.902 30.3722C107.997 29.9978 108.282 29.8106 108.758 29.8106H113.002C113.477 29.8106 113.762 29.9978 113.858 30.3722L122.06 53.0487C122.107 53.2359 122.131 53.3529 122.131 53.3997C122.131 53.6805 121.965 53.8209 121.632 53.8209H117.531C117.031 53.8209 116.734 53.622 116.639 53.2242L115.177 48.9767H106.369ZM113.929 44.9399L110.826 35.9536L107.652 44.9399H113.929Z" fill="#E3F7FF"/>
<path d="M137.239 53.8209H122.974C122.427 53.8209 122.321 53.5869 122.653 53.1189L130.356 41.7807H123.474C123.307 41.7807 123.164 41.7338 123.046 41.6402C122.951 41.5232 122.903 41.3945 122.903 41.2541V38.2704C122.903 37.9193 123.093 37.7438 123.474 37.7438H137.31C137.524 37.7438 137.667 37.814 137.738 37.9544C137.833 38.0949 137.809 38.2704 137.667 38.481L130.035 49.749H137.239C137.382 49.749 137.5 49.8075 137.595 49.9245C137.714 50.0181 137.774 50.1351 137.774 50.2755V53.2944C137.774 53.4348 137.714 53.5635 137.595 53.6805C137.5 53.7741 137.382 53.8209 137.239 53.8209Z" fill="#E3F7FF"/>
<path d="M140.173 46.9057V38.2704C140.173 37.9193 140.352 37.7438 140.708 37.7438H144.346C144.702 37.7438 144.881 37.9193 144.881 38.2704V46.5897C144.881 47.4556 145.035 48.1811 145.344 48.7661C145.867 49.749 146.83 50.2404 148.233 50.2404C149.612 50.2404 150.587 49.749 151.157 48.7661C151.466 48.1811 151.621 47.4556 151.621 46.5897V38.2704C151.621 37.9193 151.799 37.7438 152.156 37.7438H155.793C156.15 37.7438 156.328 37.9193 156.328 38.2704V46.9057C156.328 48.8714 155.853 50.451 154.902 51.6445C153.546 53.3295 151.324 54.1719 148.233 54.1719C145.166 54.1719 142.955 53.3295 141.6 51.6445C140.649 50.451 140.173 48.8714 140.173 46.9057Z" fill="#E3F7FF"/>
<path d="M160.692 30.4424C160.692 30.0914 160.871 29.9159 161.227 29.9159H164.865C165.007 29.9159 165.126 29.9744 165.221 30.0914C165.34 30.185 165.4 30.302 165.4 30.4424V53.2944C165.4 53.4348 165.34 53.5635 165.221 53.6805C165.126 53.7741 165.007 53.8209 164.865 53.8209H161.227C160.871 53.8209 160.692 53.6454 160.692 53.2944V30.4424Z" fill="#E3F7FF"/>
<path d="M112.421 62.8905H119.443C119.511 62.8905 119.564 62.9144 119.603 62.9622C119.652 63.0004 119.676 63.0482 119.676 63.1056V64.511C119.676 64.5684 119.652 64.621 119.603 64.6688C119.564 64.707 119.511 64.7261 119.443 64.7261H114.286V66.8342H118.685C118.744 66.8342 118.792 66.8581 118.831 66.9059C118.88 66.9442 118.904 66.992 118.904 67.0493V68.4404C118.904 68.5073 118.88 68.5647 118.831 68.6125C118.792 68.6507 118.744 68.6698 118.685 68.6698H114.286V70.8353H119.443C119.598 70.8353 119.676 70.907 119.676 71.0504V72.4415C119.676 72.4988 119.652 72.5514 119.603 72.5992C119.564 72.6375 119.511 72.6566 119.443 72.6566H112.421C112.353 72.6566 112.294 72.6375 112.246 72.5992C112.207 72.5514 112.188 72.4988 112.188 72.4415V63.1056C112.188 63.0482 112.207 63.0004 112.246 62.9622C112.294 62.9144 112.353 62.8905 112.421 62.8905Z" fill="#E3F7FF"/>
<path d="M125.943 69.5303H121.5C121.441 69.5303 121.388 69.5112 121.339 69.4729C121.301 69.4251 121.281 69.3725 121.281 69.3152V67.9671C121.281 67.9002 121.301 67.8476 121.339 67.8094C121.388 67.7616 121.441 67.7377 121.5 67.7377H125.943C126.001 67.7377 126.05 67.7616 126.089 67.8094C126.137 67.8476 126.162 67.9002 126.162 67.9671V69.3152C126.162 69.3725 126.137 69.4251 126.089 69.4729C126.05 69.5112 126.001 69.5303 125.943 69.5303Z" fill="#E3F7FF"/>
<path d="M131.53 71.2082C132.016 71.2082 132.497 71.0743 132.972 70.8066C133.118 70.7206 133.225 70.7397 133.293 70.864L133.832 71.8965C133.89 71.9921 133.861 72.0829 133.745 72.169C133.162 72.5896 132.409 72.8 131.486 72.8C130.272 72.8 129.325 72.451 128.645 71.7531C128.063 71.1317 127.771 70.3381 127.771 69.3725C127.771 68.5503 128.014 67.8476 128.5 67.2644C129.209 66.404 130.219 65.9738 131.53 65.9738C132.365 65.9738 133.094 66.1889 133.715 66.6191C133.832 66.6956 133.861 66.7912 133.803 66.9059L133.235 67.9528C133.176 68.0771 133.07 68.0962 132.914 68.0102C132.448 67.7233 131.987 67.5799 131.53 67.5799C130.986 67.5799 130.544 67.7616 130.204 68.1249C129.894 68.4595 129.738 68.8754 129.738 69.3725C129.738 69.9079 129.898 70.3429 130.219 70.6775C130.549 71.0313 130.986 71.2082 131.53 71.2082Z" fill="#E3F7FF"/>
<path d="M136.527 68.0819C136.216 68.4165 136.061 68.8515 136.061 69.3869C136.061 69.9223 136.216 70.362 136.527 70.7062C136.838 71.0408 137.251 71.2082 137.765 71.2082C138.28 71.2082 138.693 71.0408 139.004 70.7062C139.315 70.362 139.47 69.9223 139.47 69.3869C139.47 68.8515 139.315 68.4165 139.004 68.0819C138.693 67.7377 138.28 67.5656 137.765 67.5656C137.251 67.5656 136.838 67.7377 136.527 68.0819ZM135.187 71.8822C134.507 71.2607 134.167 70.429 134.167 69.3869C134.167 68.3448 134.507 67.513 135.187 66.8916C135.876 66.2701 136.736 65.9594 137.765 65.9594C138.805 65.9594 139.664 66.2701 140.344 66.8916C141.034 67.513 141.379 68.3448 141.379 69.3869C141.379 70.429 141.034 71.2607 140.344 71.8822C139.664 72.494 138.805 72.8 137.765 72.8C136.726 72.8 135.867 72.494 135.187 71.8822Z" fill="#E3F7FF"/>
<path d="M144.457 66.5474H144.501C144.948 66.165 145.496 65.9738 146.147 65.9738C147.06 65.9738 147.755 66.2893 148.231 66.9203C148.755 66.2893 149.474 65.9738 150.387 65.9738C151.173 65.9738 151.8 66.1889 152.266 66.6191C152.752 67.0493 152.995 67.7186 152.995 68.6268V72.4415C152.995 72.4988 152.97 72.5514 152.922 72.5992C152.883 72.6375 152.834 72.6566 152.776 72.6566H151.29C151.144 72.6566 151.072 72.5849 151.072 72.4415V69.1001C151.072 68.5742 150.974 68.1822 150.78 67.9241C150.586 67.6851 150.304 67.5656 149.935 67.5656C149.527 67.5656 149.221 67.7377 149.017 68.0819C148.842 68.3782 148.755 68.8419 148.755 69.4729V72.4415C148.755 72.4988 148.731 72.5514 148.682 72.5992C148.643 72.6375 148.595 72.6566 148.536 72.6566H147.05C146.905 72.6566 146.832 72.5849 146.832 72.4415V69.1001C146.832 68.5742 146.735 68.1822 146.541 67.9241C146.346 67.6851 146.065 67.5656 145.696 67.5656C145.297 67.5656 144.991 67.7377 144.778 68.0819C144.622 68.3591 144.535 68.8085 144.515 69.4299V72.4415C144.515 72.4988 144.491 72.5514 144.443 72.5992C144.404 72.6375 144.355 72.6566 144.297 72.6566H142.811C142.665 72.6566 142.592 72.5849 142.592 72.4415V66.3036C142.592 66.1602 142.665 66.0885 142.811 66.0885H144.239C144.384 66.0885 144.457 66.1602 144.457 66.3036V66.5474Z" fill="#E3F7FF"/>
<path d="M156.33 66.5474H156.374C156.821 66.165 157.37 65.9738 158.02 65.9738C158.933 65.9738 159.628 66.2893 160.104 66.9203C160.628 66.2893 161.347 65.9738 162.26 65.9738C163.047 65.9738 163.673 66.1889 164.139 66.6191C164.625 67.0493 164.868 67.7186 164.868 68.6268V72.4415C164.868 72.4988 164.844 72.5514 164.795 72.5992C164.756 72.6375 164.708 72.6566 164.649 72.6566H163.163C163.018 72.6566 162.945 72.5849 162.945 72.4415V69.1001C162.945 68.5742 162.848 68.1822 162.653 67.9241C162.459 67.6851 162.177 67.5656 161.808 67.5656C161.4 67.5656 161.094 67.7377 160.89 68.0819C160.716 68.3782 160.628 68.8419 160.628 69.4729V72.4415C160.628 72.4988 160.604 72.5514 160.555 72.5992C160.517 72.6375 160.468 72.6566 160.41 72.6566H158.924C158.778 72.6566 158.705 72.5849 158.705 72.4415V69.1001C158.705 68.5742 158.608 68.1822 158.414 67.9241C158.219 67.6851 157.938 67.5656 157.569 67.5656C157.171 67.5656 156.865 67.7377 156.651 68.0819C156.495 68.3591 156.408 68.8085 156.389 69.4299V72.4415C156.389 72.4988 156.364 72.5514 156.316 72.5992C156.277 72.6375 156.228 72.6566 156.17 72.6566H154.684C154.538 72.6566 154.466 72.5849 154.466 72.4415V66.3036C154.466 66.1602 154.538 66.0885 154.684 66.0885H156.112C156.257 66.0885 156.33 66.1602 156.33 66.3036V66.5474Z" fill="#E3F7FF"/>
<path d="M167.956 68.6985H170.68C170.671 68.3639 170.564 68.0771 170.36 67.8381C170.117 67.5799 169.787 67.4509 169.369 67.4509C168.903 67.4509 168.553 67.5799 168.32 67.8381C168.126 68.058 168.004 68.3448 167.956 68.6985ZM169.704 71.2942C170.258 71.2942 170.797 71.146 171.321 70.8496C171.486 70.7636 171.598 70.7827 171.656 70.907L172.166 71.8391C172.215 71.9443 172.181 72.0399 172.064 72.126C171.783 72.3172 171.414 72.4797 170.957 72.6136C170.501 72.7378 170.034 72.8 169.558 72.8C168.441 72.8 167.558 72.4797 166.907 71.8391C166.256 71.2177 165.931 70.3716 165.931 69.3008C165.931 68.3448 166.256 67.5369 166.907 66.8772C167.509 66.2654 168.325 65.9594 169.354 65.9594C170.501 65.9594 171.36 66.3418 171.933 67.1067C172.361 67.6803 172.564 68.5551 172.545 69.731C172.545 69.8745 172.472 69.9462 172.327 69.9462H167.97C168.038 70.3095 168.184 70.6011 168.407 70.8209C168.709 71.1364 169.141 71.2942 169.704 71.2942Z" fill="#E3F7FF"/>
<path d="M176.892 67.623C176.047 67.623 175.625 68.2253 175.625 69.4299V72.4415C175.625 72.4988 175.601 72.5514 175.552 72.5992C175.513 72.6375 175.465 72.6566 175.406 72.6566H173.92C173.775 72.6566 173.702 72.5849 173.702 72.4415V66.3036C173.702 66.1602 173.775 66.0885 173.92 66.0885H175.348C175.494 66.0885 175.567 66.1602 175.567 66.3036V66.6908H175.61C176.028 66.2032 176.572 65.9594 177.242 65.9594C177.902 65.9594 178.446 66.1411 178.874 66.5044C178.981 66.6 179.005 66.7004 178.947 66.8055L178.408 67.9385C178.34 68.0627 178.228 68.0819 178.072 67.9958C177.655 67.7472 177.261 67.623 176.892 67.623Z" fill="#E3F7FF"/>
<path d="M182.851 71.2082C183.336 71.2082 183.817 71.0743 184.293 70.8066C184.439 70.7206 184.545 70.7397 184.613 70.864L185.152 71.8965C185.211 71.9921 185.182 72.0829 185.065 72.169C184.482 72.5896 183.73 72.8 182.807 72.8C181.593 72.8 180.646 72.451 179.966 71.7531C179.383 71.1317 179.092 70.3381 179.092 69.3725C179.092 68.5503 179.335 67.8476 179.82 67.2644C180.529 66.404 181.539 65.9738 182.851 65.9738C183.686 65.9738 184.414 66.1889 185.036 66.6191C185.152 66.6956 185.182 66.7912 185.123 66.9059L184.555 67.9528C184.497 68.0771 184.39 68.0962 184.235 68.0102C183.768 67.7233 183.307 67.5799 182.851 67.5799C182.307 67.5799 181.865 67.7616 181.525 68.1249C181.214 68.4595 181.059 68.8754 181.059 69.3725C181.059 69.9079 181.219 70.3429 181.539 70.6775C181.87 71.0313 182.307 71.2082 182.851 71.2082Z" fill="#E3F7FF"/>
<path d="M187.512 68.6985H190.237C190.227 68.3639 190.12 68.0771 189.916 67.8381C189.674 67.5799 189.343 67.4509 188.926 67.4509C188.459 67.4509 188.11 67.5799 187.877 67.8381C187.682 68.058 187.561 68.3448 187.512 68.6985ZM189.261 71.2942C189.814 71.2942 190.353 71.146 190.878 70.8496C191.043 70.7636 191.155 70.7827 191.213 70.907L191.723 71.8391C191.771 71.9443 191.737 72.0399 191.621 72.126C191.339 72.3172 190.97 72.4797 190.514 72.6136C190.057 72.7378 189.591 72.8 189.115 72.8C187.998 72.8 187.114 72.4797 186.463 71.8391C185.813 71.2177 185.487 70.3716 185.487 69.3008C185.487 68.3448 185.813 67.5369 186.463 66.8772C187.066 66.2654 187.882 65.9594 188.911 65.9594C190.057 65.9594 190.917 66.3418 191.49 67.1067C191.917 67.6803 192.121 68.5551 192.102 69.731C192.102 69.8745 192.029 69.9462 191.883 69.9462H187.527C187.595 70.3095 187.741 70.6011 187.964 70.8209C188.265 71.1364 188.697 71.2942 189.261 71.2942Z" fill="#E3F7FF"/>
<path d="M190.945 18.5349C190.945 17.7818 191.092 17.0361 191.377 16.3403C191.662 15.6445 192.08 15.0123 192.607 14.4798C193.133 13.9472 193.758 13.5248 194.447 13.2366C195.135 12.9484 195.872 12.8 196.617 12.8V18.5349L190.945 18.5349Z" fill="#E3F7FF"/>
<path d="M202.4 12.8C202.4 13.5532 202.25 14.2989 201.96 14.9947C201.669 15.6905 201.243 16.3227 200.706 16.8552C200.169 17.3877 199.532 17.8102 198.83 18.0984C198.128 18.3866 197.376 18.5349 196.617 18.5349V12.8L202.4 12.8Z" fill="#E3F7FF"/>
<path d="M188 19.8947C188 20.644 188.148 21.3859 188.436 22.0781C188.724 22.7703 189.146 23.3992 189.678 23.929C190.21 24.4588 190.842 24.879 191.537 25.1658C192.233 25.4525 192.978 25.6 193.73 25.6V19.8947L188 19.8947Z" fill="#E3F7FF"/>
<path d="M199.574 25.6C199.574 24.8508 199.422 24.1089 199.129 23.4167C198.835 22.7245 198.405 22.0956 197.862 21.5658C197.32 21.036 196.675 20.6157 195.966 20.329C195.257 20.0423 194.498 19.8947 193.73 19.8947V25.6H199.574Z" fill="#E3F7FF"/>
</svg>
