<svg width="241" height="54" viewBox="0 0 241 54" fill="none" xmlns="http://www.w3.org/2000/svg">
<path d="M16.1368 30.715C11.2334 30.715 7.3106 29.3255 4.36853 26.5465C1.45618 23.7675 0 20.0232 0 15.3136C0 10.955 1.56019 7.31309 4.68056 4.38785C7.83066 1.46262 11.694 0 16.2705 0C19.6584 0 22.7193 0.687431 25.4534 2.06229C25.8397 2.29631 25.9437 2.60346 25.7654 2.98374L23.7149 7.19608C23.5366 7.57636 23.2394 7.66411 22.8233 7.45935C20.4459 6.28926 18.2171 5.70421 16.1368 5.70421C13.5513 5.70421 11.3374 6.62566 9.49486 8.46855C7.65235 10.3115 6.7311 12.5931 6.7311 15.3136C6.7311 18.1511 7.62263 20.4766 9.40571 22.2903C11.2185 24.0747 13.4771 24.9669 16.1814 24.9669C18.5588 24.9669 20.8619 24.3818 23.0908 23.2117C23.4771 23.0362 23.7446 23.1094 23.8932 23.4311L25.9437 27.7312C26.122 28.1115 26.018 28.3894 25.6317 28.5649C22.7787 29.9983 19.6138 30.715 16.1368 30.715Z" fill="#E3F7FF"/>
<path d="M36.2542 16.2789C35.3032 17.3028 34.8277 18.6337 34.8277 20.2719C34.8277 21.91 35.3032 23.2556 36.2542 24.3087C37.2051 25.3325 38.4682 25.8444 40.0432 25.8444C41.6182 25.8444 42.8813 25.3325 43.8322 24.3087C44.7832 23.2556 45.2587 21.91 45.2587 20.2719C45.2587 18.6337 44.7832 17.3028 43.8322 16.2789C42.8813 15.2258 41.6182 14.6993 40.0432 14.6993C38.4682 14.6993 37.2051 15.2258 36.2542 16.2789ZM32.1531 27.9067C30.0729 26.0053 29.0327 23.4604 29.0327 20.2719C29.0327 17.0834 30.0729 14.5384 32.1531 12.637C34.2631 10.7356 36.8931 9.78491 40.0432 9.78491C43.223 9.78491 45.853 10.7356 47.9333 12.637C50.0433 14.5384 51.0982 17.0834 51.0982 20.2719C51.0982 23.4604 50.0433 26.0053 47.9333 27.9067C45.853 29.7789 43.223 30.715 40.0432 30.715C36.8634 30.715 34.2334 29.7789 32.1531 27.9067Z" fill="#E3F7FF"/>
<path d="M61.4094 12.1982H61.5431C63.1479 10.5893 65.1836 9.78491 67.6502 9.78491C70.1762 9.78491 72.1673 10.4431 73.6235 11.7594C75.1985 13.1636 75.986 15.2697 75.986 18.0779V29.618C75.986 30.0568 75.7632 30.2762 75.3174 30.2762H70.726C70.5477 30.2762 70.3842 30.2177 70.2356 30.1007C70.1168 29.9544 70.0573 29.7935 70.0573 29.618V19.5698C70.0573 17.7562 69.7156 16.4837 69.0321 15.7524C68.4377 15.0796 67.5462 14.7432 66.3574 14.7432C64.7527 14.7432 63.5491 15.3575 62.7467 16.5861C61.9741 17.7854 61.5877 19.2042 61.5877 20.8423V29.618C61.5877 29.7935 61.5134 29.9544 61.3648 30.1007C61.246 30.2177 61.0974 30.2762 60.9191 30.2762H56.3722C55.9265 30.2762 55.7036 30.0568 55.7036 29.618V10.838C55.7036 10.3992 55.9265 10.1798 56.3722 10.1798H60.7408C61.1865 10.1798 61.4094 10.3992 61.4094 10.838V12.1982Z" fill="#E3F7FF"/>
<path d="M87.2883 14.7432V22.378C87.2883 23.3434 87.4369 24.1039 87.7341 24.6597C88.0907 25.3618 88.7742 25.7128 89.7846 25.7128C90.7653 25.7128 91.7312 25.3472 92.6821 24.6158C93.1576 24.2648 93.4697 24.2941 93.6182 24.7036L95.1784 27.9506C95.3567 28.2724 95.2676 28.5649 94.911 28.8282C93.0982 30.086 90.8693 30.715 88.2245 30.715C85.847 30.715 84.1085 30.0714 83.009 28.7843C81.9391 27.468 81.4042 25.5958 81.4042 23.1679V14.7432H79.1754C78.9971 14.7432 78.8336 14.6847 78.685 14.5677C78.5661 14.4214 78.5067 14.2459 78.5067 14.0411V10.838C78.5067 10.3992 78.7296 10.1798 79.1754 10.1798H81.4042V6.23075C81.4042 5.79197 81.6271 5.57257 82.0729 5.57257H86.6197C87.0655 5.57257 87.2883 5.79197 87.2883 6.23075V10.1798H92.905C93.3508 10.1798 93.5737 10.3992 93.5737 10.838V14.0411C93.5737 14.5092 93.3508 14.7432 92.905 14.7432H87.2883Z" fill="#E3F7FF"/>
<path d="M105.763 14.2605C103.95 14.2605 102.092 14.7871 100.191 15.8401C99.715 16.1034 99.3882 16.0303 99.2098 15.6208L97.9171 12.8564C97.7685 12.5054 97.8577 12.2129 98.1846 11.9788C100.532 10.5162 103.296 9.78491 106.476 9.78491C109.388 9.78491 111.543 10.5455 112.939 12.0666C114.128 13.3829 114.723 15.1673 114.723 17.4198V29.618C114.723 29.7935 114.648 29.9544 114.5 30.1007C114.381 30.2177 114.232 30.2762 114.054 30.2762H110.131C109.923 30.2762 109.745 30.2177 109.596 30.1007C109.477 29.9544 109.418 29.7935 109.418 29.618V29.267H109.24C107.694 30.2323 105.882 30.715 103.801 30.715C101.899 30.715 100.324 30.1738 99.0761 29.0915C97.7388 28.0091 97.0702 26.488 97.0702 24.5281C97.0702 22.2464 98.3035 20.5498 100.77 19.4382C102.613 18.6484 105.302 18.1218 108.838 17.8586V17.4198C108.838 16.3959 108.63 15.6354 108.214 15.1381C107.739 14.553 106.922 14.2605 105.763 14.2605ZM105.718 26.4149C106.877 26.4149 107.917 26.137 108.838 25.5812V21.7637C104.737 21.91 102.687 22.773 102.687 24.3526C102.687 25.0254 102.969 25.5373 103.534 25.8883C104.098 26.2394 104.827 26.4149 105.718 26.4149Z" fill="#E3F7FF"/>
<path d="M132.961 24.2209L131.133 29.5302C130.955 30.0275 130.583 30.2762 130.019 30.2762H125.026C124.61 30.2762 124.402 30.1007 124.402 29.7496C124.402 29.6911 124.432 29.5449 124.491 29.3108L134.878 0.965328C134.996 0.497291 135.353 0.263273 135.947 0.263273H141.252C141.846 0.263273 142.203 0.497291 142.322 0.965328L152.575 29.3108C152.634 29.5449 152.664 29.6911 152.664 29.7496C152.664 30.1007 152.456 30.2762 152.04 30.2762H146.913C146.289 30.2762 145.918 30.0275 145.799 29.5302L143.971 24.2209H132.961ZM142.411 19.1749L138.533 7.94201L134.566 19.1749H142.411Z" fill="#E3F7FF"/>
<path d="M171.549 30.2762H153.718C153.034 30.2762 152.901 29.9837 153.317 29.3986L162.945 15.2258H154.342C154.134 15.2258 153.956 15.1673 153.807 15.0503C153.688 14.9041 153.629 14.7432 153.629 14.5677V10.838C153.629 10.3992 153.866 10.1798 154.342 10.1798H171.638C171.905 10.1798 172.084 10.2676 172.173 10.4431C172.292 10.6186 172.262 10.838 172.084 11.1013L162.544 25.1863H171.549C171.727 25.1863 171.875 25.2594 171.994 25.4057C172.143 25.5227 172.217 25.6689 172.217 25.8444V29.618C172.217 29.7935 172.143 29.9544 171.994 30.1007C171.875 30.2177 171.727 30.2762 171.549 30.2762Z" fill="#E3F7FF"/>
<path d="M175.217 21.6321V10.838C175.217 10.3992 175.44 10.1798 175.885 10.1798H180.432C180.878 10.1798 181.101 10.3992 181.101 10.838V21.2372C181.101 22.3195 181.294 23.2264 181.68 23.9577C182.334 25.1863 183.538 25.8006 185.291 25.8006C187.015 25.8006 188.233 25.1863 188.946 23.9577C189.333 23.2264 189.526 22.3195 189.526 21.2372V10.838C189.526 10.3992 189.749 10.1798 190.195 10.1798H194.741C195.187 10.1798 195.41 10.3992 195.41 10.838V21.6321C195.41 24.0893 194.816 26.0638 193.627 27.5557C191.933 29.6619 189.154 30.715 185.291 30.715C181.458 30.715 178.694 29.6619 177 27.5557C175.811 26.0638 175.217 24.0893 175.217 21.6321Z" fill="#E3F7FF"/>
<path d="M200.865 1.05309C200.865 0.6143 201.088 0.394907 201.534 0.394907H206.081C206.259 0.394907 206.408 0.468038 206.527 0.614299C206.675 0.731309 206.75 0.877571 206.75 1.05309V29.618C206.75 29.7935 206.675 29.9544 206.527 30.1007C206.408 30.2177 206.259 30.2762 206.081 30.2762H201.534C201.088 30.2762 200.865 30.0568 200.865 29.618V1.05309Z" fill="#E3F7FF"/>
<path d="M140.526 41.6132H149.304C149.389 41.6132 149.455 41.643 149.504 41.7028C149.565 41.7506 149.595 41.8103 149.595 41.882V43.6388C149.595 43.7105 149.565 43.7762 149.504 43.836C149.455 43.8838 149.389 43.9077 149.304 43.9077H142.857V46.5428H148.357C148.43 46.5428 148.49 46.5727 148.539 46.6324C148.6 46.6802 148.63 46.74 148.63 46.8117V48.5505C148.63 48.6342 148.6 48.7059 148.539 48.7656C148.49 48.8134 148.43 48.8373 148.357 48.8373H142.857V51.5441H149.304C149.498 51.5441 149.595 51.6338 149.595 51.813V53.5519C149.595 53.6236 149.565 53.6893 149.504 53.749C149.455 53.7968 149.389 53.8207 149.304 53.8207H140.526C140.441 53.8207 140.368 53.7968 140.307 53.749C140.259 53.6893 140.235 53.6236 140.235 53.5519V41.882C140.235 41.8103 140.259 41.7506 140.307 41.7028C140.368 41.643 140.441 41.6132 140.526 41.6132Z" fill="#E3F7FF"/>
<path d="M157.429 49.9129H151.875C151.802 49.9129 151.735 49.889 151.674 49.8412C151.626 49.7814 151.601 49.7157 151.601 49.644V47.9589C151.601 47.8753 151.626 47.8096 151.674 47.7618C151.735 47.702 151.802 47.6721 151.875 47.6721H157.429C157.502 47.6721 157.562 47.702 157.611 47.7618C157.672 47.8096 157.702 47.8753 157.702 47.9589V49.644C157.702 49.7157 157.672 49.7814 157.611 49.8412C157.562 49.889 157.502 49.9129 157.429 49.9129Z" fill="#E3F7FF"/>
<path d="M164.413 52.0102C165.02 52.0102 165.621 51.8429 166.216 51.5083C166.398 51.4007 166.531 51.4246 166.616 51.58L167.29 52.8707C167.363 52.9902 167.326 53.1037 167.181 53.2113C166.452 53.7371 165.511 54 164.358 54C162.84 54 161.657 53.5638 160.807 52.6914C160.078 51.9146 159.714 50.9227 159.714 49.7157C159.714 48.6879 160.018 47.8096 160.625 47.0806C161.511 46.005 162.774 45.4672 164.413 45.4672C165.457 45.4672 166.367 45.7361 167.144 46.2739C167.29 46.3695 167.326 46.489 167.254 46.6324L166.543 47.941C166.471 48.0964 166.337 48.1203 166.143 48.0127C165.56 47.6542 164.983 47.4749 164.413 47.4749C163.733 47.4749 163.18 47.702 162.755 48.1561C162.367 48.5744 162.173 49.0943 162.173 49.7157C162.173 50.3849 162.373 50.9287 162.774 51.347C163.186 51.7891 163.733 52.0102 164.413 52.0102Z" fill="#E3F7FF"/>
<path d="M170.659 48.1024C170.27 48.5206 170.076 49.0644 170.076 49.7336C170.076 50.4029 170.27 50.9526 170.659 51.3828C171.047 51.8011 171.563 52.0102 172.207 52.0102C172.85 52.0102 173.366 51.8011 173.755 51.3828C174.143 50.9526 174.338 50.4029 174.338 49.7336C174.338 49.0644 174.143 48.5206 173.755 48.1024C173.366 47.6721 172.85 47.457 172.207 47.457C171.563 47.457 171.047 47.6721 170.659 48.1024ZM168.983 52.8527C168.134 52.0759 167.709 51.0362 167.709 49.7336C167.709 48.431 168.134 47.3913 168.983 46.6145C169.845 45.8377 170.92 45.4493 172.207 45.4493C173.506 45.4493 174.58 45.8377 175.43 46.6145C176.292 47.3913 176.723 48.431 176.723 49.7336C176.723 51.0362 176.292 52.0759 175.43 52.8527C174.58 53.6176 173.506 54 172.207 54C170.908 54 169.833 53.6176 168.983 52.8527Z" fill="#E3F7FF"/>
<path d="M180.571 46.1843H180.626C181.185 45.7062 181.871 45.4672 182.684 45.4672C183.825 45.4672 184.693 45.8616 185.288 46.6504C185.944 45.8616 186.842 45.4672 187.983 45.4672C188.967 45.4672 189.75 45.7361 190.333 46.2739C190.94 46.8117 191.243 47.6482 191.243 48.7835V53.5519C191.243 53.6236 191.213 53.6893 191.152 53.749C191.104 53.7968 191.043 53.8207 190.97 53.8207H189.113C188.93 53.8207 188.839 53.7311 188.839 53.5519V49.3751C188.839 48.7178 188.718 48.2278 188.475 47.9052C188.232 47.6064 187.88 47.457 187.419 47.457C186.909 47.457 186.527 47.6721 186.272 48.1024C186.053 48.4728 185.944 49.0524 185.944 49.8412V53.5519C185.944 53.6236 185.913 53.6893 185.853 53.749C185.804 53.7968 185.743 53.8207 185.671 53.8207H183.813C183.631 53.8207 183.54 53.7311 183.54 53.5519V49.3751C183.54 48.7178 183.418 48.2278 183.176 47.9052C182.933 47.6064 182.581 47.457 182.119 47.457C181.622 47.457 181.239 47.6721 180.972 48.1024C180.778 48.4489 180.669 49.0106 180.644 49.7874V53.5519C180.644 53.6236 180.614 53.6893 180.553 53.749C180.505 53.7968 180.444 53.8207 180.371 53.8207H178.514C178.331 53.8207 178.24 53.7311 178.24 53.5519V45.8795C178.24 45.7003 178.331 45.6106 178.514 45.6106H180.298C180.48 45.6106 180.571 45.7003 180.571 45.8795V46.1843Z" fill="#E3F7FF"/>
<path d="M195.413 46.1843H195.468C196.026 45.7062 196.712 45.4672 197.525 45.4672C198.667 45.4672 199.535 45.8616 200.13 46.6504C200.785 45.8616 201.684 45.4672 202.825 45.4672C203.808 45.4672 204.591 45.7361 205.174 46.2739C205.781 46.8117 206.085 47.6482 206.085 48.7835V53.5519C206.085 53.6236 206.054 53.6893 205.994 53.749C205.945 53.7968 205.884 53.8207 205.812 53.8207H203.954C203.772 53.8207 203.681 53.7311 203.681 53.5519V49.3751C203.681 48.7178 203.559 48.2278 203.317 47.9052C203.074 47.6064 202.722 47.457 202.26 47.457C201.75 47.457 201.368 47.6721 201.113 48.1024C200.895 48.4728 200.785 49.0524 200.785 49.8412V53.5519C200.785 53.6236 200.755 53.6893 200.694 53.749C200.646 53.7968 200.585 53.8207 200.512 53.8207H198.655C198.472 53.8207 198.381 53.7311 198.381 53.5519V49.3751C198.381 48.7178 198.26 48.2278 198.017 47.9052C197.774 47.6064 197.422 47.457 196.961 47.457C196.463 47.457 196.081 47.6721 195.814 48.1024C195.619 48.4489 195.51 49.0106 195.486 49.7874V53.5519C195.486 53.6236 195.455 53.6893 195.395 53.749C195.346 53.7968 195.285 53.8207 195.213 53.8207H193.355C193.173 53.8207 193.082 53.7311 193.082 53.5519V45.8795C193.082 45.7003 193.173 45.6106 193.355 45.6106H195.14C195.322 45.6106 195.413 45.7003 195.413 45.8795V46.1843Z" fill="#E3F7FF"/>
<path d="M209.945 48.8732H213.35C213.338 48.4549 213.205 48.0964 212.95 47.7976C212.646 47.4749 212.233 47.3136 211.711 47.3136C211.129 47.3136 210.691 47.4749 210.4 47.7976C210.157 48.0725 210.005 48.431 209.945 48.8732ZM212.13 52.1178C212.822 52.1178 213.496 51.9325 214.152 51.5621C214.358 51.4545 214.498 51.4784 214.57 51.6338L215.208 52.799C215.269 52.9304 215.226 53.0499 215.08 53.1575C214.728 53.3965 214.267 53.5997 213.696 53.767C213.126 53.9223 212.543 54 211.948 54C210.552 54 209.447 53.5997 208.634 52.799C207.82 52.0222 207.413 50.9645 207.413 49.6261C207.413 48.431 207.82 47.4212 208.634 46.5966C209.386 45.8317 210.406 45.4493 211.693 45.4493C213.126 45.4493 214.2 45.9273 214.916 46.8834C215.451 47.6004 215.706 48.6939 215.681 50.1638C215.681 50.3431 215.59 50.4327 215.408 50.4327H209.963C210.048 50.8869 210.23 51.2514 210.509 51.5262C210.886 51.9206 211.426 52.1178 212.13 52.1178Z" fill="#E3F7FF"/>
<path d="M221.115 47.5287C220.059 47.5287 219.531 48.2816 219.531 49.7874V53.5519C219.531 53.6236 219.501 53.6893 219.44 53.749C219.391 53.7968 219.331 53.8207 219.258 53.8207H217.4C217.218 53.8207 217.127 53.7311 217.127 53.5519V45.8795C217.127 45.7003 217.218 45.6106 217.4 45.6106H219.185C219.367 45.6106 219.458 45.7003 219.458 45.8795V46.3635H219.513C220.035 45.7541 220.715 45.4493 221.552 45.4493C222.378 45.4493 223.058 45.6764 223.592 46.1305C223.726 46.25 223.756 46.3755 223.683 46.5069L223.009 47.9231C222.924 48.0785 222.785 48.1024 222.591 47.9948C222.068 47.6841 221.577 47.5287 221.115 47.5287Z" fill="#E3F7FF"/>
<path d="M228.563 52.0102C229.17 52.0102 229.771 51.8429 230.366 51.5083C230.548 51.4007 230.682 51.4246 230.767 51.58L231.441 52.8707C231.513 52.9902 231.477 53.1037 231.331 53.2113C230.603 53.7371 229.662 54 228.509 54C226.991 54 225.807 53.5638 224.957 52.6914C224.229 51.9146 223.865 50.9227 223.865 49.7157C223.865 48.6879 224.168 47.8096 224.775 47.0806C225.662 46.005 226.924 45.4672 228.563 45.4672C229.607 45.4672 230.518 45.7361 231.295 46.2739C231.441 46.3695 231.477 46.489 231.404 46.6324L230.694 47.941C230.621 48.0964 230.488 48.1203 230.293 48.0127C229.711 47.6542 229.134 47.4749 228.563 47.4749C227.883 47.4749 227.331 47.702 226.906 48.1561C226.518 48.5744 226.323 49.0943 226.323 49.7157C226.323 50.3849 226.524 50.9287 226.924 51.347C227.337 51.7891 227.883 52.0102 228.563 52.0102Z" fill="#E3F7FF"/>
<path d="M234.391 48.8732H237.796C237.784 48.4549 237.65 48.0964 237.395 47.7976C237.092 47.4749 236.679 47.3136 236.157 47.3136C235.574 47.3136 235.137 47.4749 234.846 47.7976C234.603 48.0725 234.451 48.431 234.391 48.8732ZM236.576 52.1178C237.268 52.1178 237.942 51.9325 238.597 51.5621C238.804 51.4545 238.943 51.4784 239.016 51.6338L239.654 52.799C239.714 52.9304 239.672 53.0499 239.526 53.1575C239.174 53.3965 238.713 53.5997 238.142 53.767C237.571 53.9223 236.989 54 236.394 54C234.998 54 233.893 53.5997 233.079 52.799C232.266 52.0222 231.859 50.9645 231.859 49.6261C231.859 48.431 232.266 47.4212 233.079 46.5966C233.832 45.8317 234.852 45.4493 236.139 45.4493C237.571 45.4493 238.646 45.9273 239.362 46.8834C239.896 47.6004 240.151 48.6939 240.127 50.1638C240.127 50.3431 240.036 50.4327 239.854 50.4327H234.409C234.494 50.8869 234.676 51.2514 234.955 51.5262C235.331 51.9206 235.872 52.1178 236.576 52.1178Z" fill="#E3F7FF"/>
</svg>
