<svg width="89" height="71" viewBox="0 0 89 71" fill="none" xmlns="http://www.w3.org/2000/svg">
<path d="M47.6818 23.1686C47.6818 22.2272 47.8652 21.295 48.2215 20.4253C48.5777 19.5556 49.0999 18.7653 49.7582 18.0996C50.4165 17.434 51.198 16.9059 52.0581 16.5457C52.9182 16.1854 53.8401 16 54.7711 16V23.1686L47.6818 23.1686Z" fill="#E3F7FF"/>
<path d="M62 16C62 16.9414 61.813 17.8736 61.4497 18.7433C61.0864 19.613 60.554 20.4033 59.8827 21.069C59.2114 21.7346 58.4145 22.2627 57.5375 22.6229C56.6604 22.9832 55.7204 23.1686 54.7711 23.1686V16L62 16Z" fill="#E3F7FF"/>
<path d="M44 24.8684C44 25.8049 44.1853 26.7323 44.5452 27.5975C44.9052 28.4628 45.4328 29.249 46.098 29.9112C46.7631 30.5734 47.5527 31.0987 48.4218 31.4571C49.2908 31.8155 50.2223 32 51.1629 32V24.8684L44 24.8684Z" fill="#E3F7FF"/>
<path d="M58.4669 32C58.4669 31.0635 58.278 30.1361 57.911 29.2708C57.5439 28.4056 57.0059 27.6194 56.3276 26.9572C55.6494 26.2949 54.8442 25.7696 53.958 25.4112C53.0719 25.0528 52.1221 24.8684 51.1629 24.8684V32H58.4669Z" fill="#E3F7FF"/>
<path d="M33.7403 49.5192C32.416 49.874 31.0197 49.286 30.3483 48.0908L12.7077 16.6898C12.0362 15.4946 10.6399 14.9066 9.31568 15.2614L3.82767 16.7319C2.22728 17.1607 0.582265 16.211 0.15344 14.6106L0.102967 14.4222C-0.325858 12.8218 0.623889 11.1768 2.22429 10.748L12.36 8.03213C13.6842 7.6773 15.0805 8.26529 15.7519 9.46051L18.1652 13.7561C18.8371 14.952 20.2345 15.5399 21.5592 15.1839L77.6771 0.104115C79.4918 -0.383515 81.303 0.898077 81.4469 2.7716L83.8122 33.5681C83.9227 35.0077 82.9921 36.3219 81.5975 36.6956L33.7403 49.5192ZM26.1656 20.3609C24.2756 20.8688 23.3701 23.0212 24.3287 24.7275L33.3925 40.8614C34.064 42.0567 35.4603 42.6447 36.7845 42.2898L75.0269 32.0428C76.4216 31.6691 77.3522 30.3549 77.2417 28.9153L75.8421 10.6925C75.6982 8.81899 73.887 7.5374 72.0723 8.02503L26.1656 20.3609Z" fill="#E3F7FF"/>
<path d="M45.5242 69.7345C40.2477 71.1484 34.8047 68.0058 33.3908 62.7293C31.977 57.4528 35.1195 52.0099 40.396 50.596L76.4493 40.9356C81.7258 39.5218 87.1688 42.6642 88.5827 47.9407C89.9965 53.2172 86.854 58.6603 81.5774 60.0741C76.3008 61.488 70.8579 58.3453 69.4441 53.0688C69.1045 51.8017 69.0285 50.525 69.181 49.2967L50.8711 54.2028C51.6174 55.1903 52.1899 56.3339 52.5294 57.6011C53.9432 62.8776 50.8007 68.3207 45.5242 69.7345ZM75.428 51.4655C75.9577 53.4425 77.997 54.6199 79.974 54.0902C81.951 53.5605 83.1285 51.5211 82.5987 49.544C82.069 47.5672 80.0297 46.3898 78.0526 46.9195C76.0757 47.4492 74.8983 49.4886 75.428 51.4655ZM39.3747 61.1259C39.9044 63.103 41.9437 64.2804 43.9207 63.7506C45.8977 63.2209 47.0751 61.1816 46.5453 59.2045C46.0156 57.2276 43.9763 56.0502 41.9993 56.58C40.0224 57.1097 38.845 59.149 39.3747 61.1259Z" fill="#E3F7FF"/>
</svg>
