<svg width="66" height="59" viewBox="0 0 66 59" fill="none" xmlns="http://www.w3.org/2000/svg">
<path d="M0 33C-2.92361e-07 36.4144 0.678755 39.7953 1.99751 42.9498C3.31627 46.1042 5.2492 48.9705 7.68594 51.3848C10.1227 53.7991 13.0155 55.7142 16.1993 57.0209C19.383 58.3275 22.7954 59 26.2415 59L26.2415 33L0 33Z" fill="#E3F7FF"/>
<path d="M53 59C53 55.5856 52.3079 52.2047 50.9631 49.0502C49.6184 45.8958 47.6474 43.0295 45.1626 40.6152C42.6778 38.2009 39.728 36.2858 36.4815 34.9791C33.235 33.6725 29.7554 33 26.2415 33L26.2415 59H53Z" fill="#E3F7FF"/>
<path d="M13 26C13 22.5856 13.6788 19.2047 14.9975 16.0502C16.3163 12.8958 18.2492 10.0295 20.6859 7.61522C23.1227 5.2009 26.0155 3.28575 29.1993 1.97913C32.383 0.67251 35.7954 1.58338e-07 39.2415 0L39.2415 26L13 26Z" fill="#E3F7FF"/>
<path d="M66 1.68548e-06C66 3.41437 65.3079 6.7953 63.9631 9.94977C62.6184 13.1042 60.6474 15.9705 58.1626 18.3848C55.6778 20.7991 52.728 22.7142 49.4815 24.0209C46.235 25.3275 42.7554 26 39.2415 26L39.2415 0L66 1.68548e-06Z" fill="#E3F7FF"/>
</svg>
