<svg width="76" height="71" viewBox="0 0 76 71" fill="none" xmlns="http://www.w3.org/2000/svg">
<path d="M61.5655 37.6885C62.052 38.2699 61.9869 38.9803 61.4682 39.4972L56.4421 44.4706C55.7289 45.1165 54.918 45.1486 54.3343 44.4706C51.998 41.9338 48.8247 39.7687 45.2652 38.4346L45.3492 28.1506C52.1737 29.7485 57.9867 33.3215 61.5655 37.6885ZM29.7354 38.3995C26.1963 39.7058 23.0389 41.8369 20.741 44.3737C20.0925 45.0841 19.2169 45.181 18.5036 44.5027L13.4775 39.4972C12.9263 38.9158 12.8939 38.2699 13.3803 37.6885C16.9654 33.3139 22.7931 29.7356 29.6331 28.1416L29.7354 38.3995Z" fill="#1E2B40"/>
<path d="M29.5401 18.8201C20.9816 20.3578 13.3527 24.4905 7.2192 30.9718C6.60313 31.6177 5.69519 31.6177 5.04668 31.0041L0.571862 26.4827C0.0206186 25.9014 0.0206186 25.1909 0.474584 24.6419C6.69291 16.9664 17.4846 10.9612 29.4428 9.05076L29.5401 18.8201ZM74.4709 24.6419C74.9248 25.1909 74.9574 25.9014 74.3736 26.4827L69.8987 30.9395C69.2502 31.5531 68.375 31.5854 67.7912 31.0041C61.7022 24.517 54.038 20.3635 45.4251 18.8212L45.5048 9.0498C57.469 10.9588 68.2249 16.965 74.4709 24.6419Z" fill="#1E2B40"/>
<path d="M37.4726 62.0725C40.2289 62.0725 42.4015 59.8442 42.4015 57.1314C42.4015 54.3862 40.2289 52.2224 37.4726 52.2224C34.7489 52.2224 32.5439 54.3862 32.5439 57.1314C32.5439 59.8442 34.7489 62.0725 37.4726 62.0725ZM37.5052 46.5061C39.2238 46.5061 40.391 45.3758 40.4235 43.5996C40.5208 31.7148 40.6181 19.7654 40.7154 7.84842C40.7154 6.00757 39.2238 4.74805 37.4726 4.74805C35.7218 4.74805 34.2302 6.00757 34.2302 7.84842C34.3597 19.7654 34.457 31.7148 34.5868 43.5996C34.619 45.3758 35.7865 46.5061 37.5052 46.5061Z" fill="#1E2B40"/>
</svg>
