<svg width="23" height="23" viewBox="0 0 23 23" fill="none" xmlns="http://www.w3.org/2000/svg">
<path d="M11.186 12.5282L14.6979 16.0397C14.862 16.2029 15.0516 16.2844 15.2695 16.2844C15.4871 16.2844 15.678 16.2029 15.8412 16.0397C16.0041 15.8756 16.0868 15.686 16.0868 15.468C16.0868 15.2504 16.0041 15.0596 15.8412 14.8964L12.3294 11.3845L15.8412 7.87293C16.0041 7.70973 16.0868 7.51886 16.0868 7.30125C16.0868 7.08333 16.0041 6.89246 15.8412 6.72925C15.678 6.56636 15.4871 6.48491 15.2695 6.48491C15.0516 6.48491 14.862 6.56636 14.6979 6.72925L11.186 10.2411L7.67536 6.72925C7.51122 6.56636 7.32128 6.48491 7.10367 6.48491C6.88607 6.48491 6.69488 6.56636 6.53199 6.72925C6.36785 6.89246 6.28609 7.08333 6.28609 7.30125C6.28609 7.51886 6.36785 7.70973 6.53199 7.87293L10.0439 11.3845L6.53199 14.8964C6.36785 15.0596 6.28609 15.2504 6.28609 15.468C6.28609 15.686 6.36785 15.8756 6.53199 16.0397C6.69488 16.2029 6.88607 16.2844 7.10367 16.2844C7.32128 16.2844 7.51122 16.2029 7.67536 16.0397L11.186 12.5282ZM11.186 22.2726C9.69879 22.2726 8.29181 21.9876 6.96751 21.4159C5.64197 20.8442 4.48586 20.0636 3.49637 19.0741C2.50688 18.0862 1.7266 16.9285 1.15491 15.6045C0.582917 14.279 0.297852 12.8732 0.297852 11.3845C0.297852 9.87834 0.582917 8.46234 1.15491 7.13804C1.7266 5.8125 2.50688 4.66012 3.49637 3.6812C4.48586 2.70072 5.64197 1.92511 6.96751 1.35342C8.29181 0.781737 9.69879 0.495117 11.186 0.495117C12.6921 0.495117 14.1081 0.781737 15.4337 1.35342C16.758 1.92511 17.9104 2.70072 18.8908 3.6812C19.8701 4.66012 20.6466 5.8125 21.2171 7.13804C21.7887 8.46234 22.0754 9.87834 22.0754 11.3845C22.0754 12.8732 21.7887 14.279 21.2171 15.6045C20.6466 16.9285 19.8701 18.0862 18.8908 19.0741C17.9104 20.0636 16.758 20.8442 15.4337 21.4159C14.1081 21.9876 12.6921 22.2726 11.186 22.2726ZM11.186 20.6403C13.7631 20.6403 15.9506 19.7363 17.7472 17.9307C19.544 16.1252 20.4418 13.9426 20.4418 11.3845C20.4418 8.8074 19.544 6.62107 17.7472 4.82457C15.9506 3.02775 13.7631 2.12904 11.186 2.12904C8.62786 2.12904 6.44526 3.02775 4.63974 4.82457C2.83422 6.62107 1.93146 8.8074 1.93146 11.3845C1.93146 13.9426 2.83422 16.1252 4.63974 17.9307C6.44526 19.7363 8.62786 20.6403 11.186 20.6403Z" fill="#1E2B40"/>
</svg>
